<svg width="27" height="28" viewBox="0 0 27 28" fill="none" xmlns="http://www.w3.org/2000/svg">
<path d="M20.0998 19.8074C18.8995 18.3382 18.052 17.5903 18.052 13.54C18.052 9.83092 16.158 8.50949 14.5991 7.8677C14.392 7.78263 14.1971 7.58724 14.134 7.37456C13.8605 6.4439 13.0939 5.62402 12.0749 5.62402C11.0559 5.62402 10.2889 6.44437 10.0182 7.3755C9.95513 7.59052 9.76021 7.78263 9.55313 7.8677C7.99237 8.51042 6.1002 9.82718 6.1002 13.54C6.09787 17.5903 5.25041 18.3382 4.05004 19.8074C3.55269 20.4159 3.98834 21.3298 4.85823 21.3298H19.2963C20.1615 21.3298 20.5944 20.4131 20.0998 19.8074Z" stroke="#1B1B1B" stroke-width="1.25" stroke-linecap="round" stroke-linejoin="round"/>
<path d="M15.0664 21.3291V22.077C15.0664 22.8704 14.7512 23.6313 14.1902 24.1924C13.6292 24.7534 12.8682 25.0686 12.0748 25.0686C11.2814 25.0686 10.5205 24.7534 9.95946 24.1924C9.39843 23.6313 9.08325 22.8704 9.08325 22.077V21.3291" stroke="#1B1B1B" stroke-width="1.25" stroke-linecap="round" stroke-linejoin="round"/>
<circle cx="19.7115" cy="7.86728" r="7.17978" fill="white"/>
<circle cx="19.7115" cy="7.86723" r="3.58989" fill="#B5854B"/>
</svg>
