<svg width="214" height="61" viewBox="0 0 214 61" fill="none" xmlns="http://www.w3.org/2000/svg">
<g clip-path="url(#clip0_18_4323)">
<path d="M36.3946 48.9481L33.3641 41.7507L12.4815 41.7468L9.38189 48.9442H0.5L23.3811 1.26074L45.73 48.9481H36.3946ZM14.7856 35.635H30.8083L22.9046 15.9507L14.7837 35.635H14.7856Z" fill="#1B1B1B"/>
<path d="M96.3617 60.4998C92.4742 60.4364 87.0801 59.6004 80.2448 57.4271H80.2371C79.1264 57.0804 78.4596 56.8763 78.008 56.7396L77.6064 56.6148C73.8476 55.3053 70.3464 54.9091 65.917 54.8457C66.0399 53.6867 67.1968 46.6102 67.1968 46.6102C67.1968 46.6102 58.5955 44.6707 54.9866 37.4119C53.505 34.4323 52.3578 31.2388 51.9984 27.6827C51.7198 24.9368 51.8581 22.195 52.4077 19.5383C52.9554 16.8876 53.9124 14.3854 55.2537 12.1032V12.0992C56.203 10.4707 57.3041 8.98292 58.5282 7.6734C59.7504 6.36587 61.132 5.20097 62.6328 4.20844C64.1337 3.2159 65.7286 2.41355 67.3774 1.8212C69.0281 1.22884 70.7787 0.828658 72.5812 0.634508H72.5851C75.1543 0.357153 77.7025 0.513661 80.1583 1.10205C82.6123 1.68846 84.9721 2.71072 87.1704 4.13514C88.7308 5.1455 90.1548 6.32228 91.4058 7.63378C92.6568 8.94528 93.7694 10.4291 94.7129 12.0437C95.6584 13.6623 96.4309 15.4057 97.0074 17.2263C97.5858 19.0549 97.9836 21.0122 98.1892 23.0488C98.514 26.2543 98.2219 29.4538 97.3206 32.5542C96.4194 35.6527 94.9743 38.4441 93.0219 40.8531L93.0104 40.867C91.2713 43.0779 90.1298 44.2487 87.0455 45.8237C84.3648 47.1927 83.1542 47.785 79.5799 48.1119C76.2209 48.419 72.808 47.8761 72.808 47.8761L72.6793 50.7606L73.7438 50.8835C75.2178 51.0558 79.6453 51.977 84.8779 53.1915C89.5648 54.2771 94.4074 54.713 97.8798 54.705L96.3598 60.4998H96.3617ZM73.4575 9.27414C69.5835 9.69216 66.4454 11.6356 64.1317 15.0471C61.8527 18.4071 60.9322 22.4307 61.3972 27.0051C61.8565 31.5359 63.5629 35.2545 66.4665 38.0558C69.4163 40.9006 72.8772 42.1329 76.7532 41.7149C80.6503 41.2949 83.7941 39.3574 86.1001 35.9558C88.3696 32.6077 89.2862 28.6019 88.825 24.0473C88.3619 19.4729 86.6593 15.7326 83.7672 12.9313C80.8271 10.0824 77.3604 8.85217 73.4633 9.27216H73.4614L73.4575 9.27414Z" fill="#B5854B"/>
<path d="M140.295 48.9662L137.264 41.7688L116.382 41.7648L113.282 48.9622H104.398L127.281 1.28076L149.63 48.9681H140.295V48.9662ZM118.686 35.6551H134.708L126.805 15.9707L118.684 35.6551H118.686Z" fill="#1B1B1B"/>
<path d="M184.312 48.9737L171.552 29.634H168.174L168.17 48.9697H159.379L159.386 2.03516H170.549C174.373 2.03714 177.361 2.29666 179.431 2.80581C181.437 3.30109 183.236 4.13316 184.777 5.28418L184.781 5.28814C186.403 6.4887 187.677 7.99038 188.567 9.75357C189.454 11.5128 189.904 13.3949 189.904 15.3463C189.904 16.7806 189.725 18.1396 189.374 19.3877C189.026 20.6239 188.497 21.7869 187.802 22.8468C187.104 23.9106 186.239 24.8715 185.232 25.7055C184.212 26.5495 183.013 27.2884 181.668 27.9006L180.376 28.489L194.497 48.9737H184.314H184.312ZM168.174 24.707H171.733C174.852 24.707 177.302 24.0176 179.014 22.6566C180.818 21.2222 181.735 19.1619 181.735 16.5369C181.735 13.7752 180.828 11.7208 179.039 10.4331C177.354 9.22264 174.792 8.63425 171.206 8.63425H168.178L168.176 24.709L168.174 24.707Z" fill="#1B1B1B"/>
<path d="M204.32 47.9159L204.328 2.86336L208.88 2.06299L213.433 2.86534L213.425 47.9178L208.873 48.95L204.32 47.9159Z" fill="black"/>
<path d="M204.32 47.9157L204.328 2.8632L208.571 2.1084V48.8825L204.32 47.9157Z" fill="url(#paint0_linear_18_4323)"/>
<path d="M209.176 2.1084L213.5 2.89688L213.49 47.9494L209.176 48.8825V2.1084Z" fill="url(#paint1_linear_18_4323)"/>
</g>
<defs>
<linearGradient id="paint0_linear_18_4323" x1="208.576" y1="25.4952" x2="204.324" y2="25.4945" gradientUnits="userSpaceOnUse">
<stop stop-color="#1B1B1B"/>
<stop offset="1"/>
</linearGradient>
<linearGradient id="paint1_linear_18_4323" x1="209.174" y1="25.4995" x2="213.498" y2="25.5002" gradientUnits="userSpaceOnUse">
<stop stop-color="#1B1B1B"/>
<stop offset="1"/>
</linearGradient>
<clipPath id="clip0_18_4323">
<rect width="213" height="60" fill="white" transform="translate(0.5 0.5)"/>
</clipPath>
</defs>
</svg>
