<svg width="64" height="32" viewBox="0 0 64 32" fill="none" xmlns="http://www.w3.org/2000/svg">
<rect x="0.891357" width="63" height="32" rx="8" fill="#B5854B"/>
<path d="M47.8878 4C41.2605 4 35.8914 9.59955 35.8914 16.5037C35.8914 23.4079 41.2605 29 47.8878 29C54.5151 29 59.8914 23.4004 59.8914 16.5037C59.8914 9.60704 54.5151 4 47.8878 4ZM47.9007 7.78069C50.0751 7.76722 51.847 9.59207 51.8729 11.8847C51.906 14.1355 50.0945 16.0299 47.9136 16.0299C45.7328 16.0299 43.9608 14.1841 43.9479 11.9057C43.9414 9.6482 45.7069 7.79491 47.9007 7.78144V7.78069ZM53.527 23.6265C51.8866 25.0127 50.009 25.7126 47.9007 25.7335C45.7658 25.7058 43.8753 24.9925 42.2284 23.5719C41.688 23.1055 41.5299 22.4805 41.6154 21.774C41.8921 19.5576 43.5326 18.0479 45.6868 18.0404C47.1757 18.0337 48.6645 18.0337 50.1469 18.0404C52.3932 18.0472 54.1393 19.7837 54.2183 22.0546C54.2449 22.6999 54.0078 23.2216 53.5263 23.6265H53.527Z" fill="white"/>
<path d="M8.89136 11H26.3914" stroke="white" stroke-linecap="round"/>
<path d="M8.89136 16H26.3914" stroke="white" stroke-linecap="round"/>
<path d="M8.89136 21H26.3914" stroke="white" stroke-linecap="round"/>
</svg>
