<svg width="84" height="112" viewBox="0 0 84 112" fill="none" xmlns="http://www.w3.org/2000/svg">
<g opacity="0.45" clip-path="url(#clip0_65_3111)">
<path opacity="0.7" d="M61.1658 27.4209L42.0753 36.5077V50.47L32.8213 41.1014L13.4346 50.9379V112H70.5856V36.6989L61.1658 27.4209ZM30.0044 109.237H16.2314V52.4423L30.0044 45.8209V109.242V109.237ZM58.3439 109.237H44.5709V38.5706L58.3439 32.3115V109.237Z" fill="black"/>
<path d="M83.51 0.0253906V112.02H76.0887V13.2782L7.9313 47.487V112.02H0.51001V41.4795L83.51 0.0253906Z" fill="black"/>
<path d="M62.3459 32.5186L69.6015 39.628" stroke="white" stroke-width="0.5" stroke-miterlimit="10"/>
<path d="M62.3459 33.9824L69.6015 41.0868" stroke="white" stroke-width="0.5" stroke-miterlimit="10"/>
<path d="M62.3459 35.4473L69.6015 42.5517" stroke="white" stroke-width="0.5" stroke-miterlimit="10"/>
<path d="M62.3459 37.127L69.6015 44.2364" stroke="white" stroke-width="0.5" stroke-miterlimit="10"/>
<path d="M62.3459 38.8125L69.6015 45.9169" stroke="white" stroke-width="0.5" stroke-miterlimit="10"/>
<path d="M62.3459 40.498L69.6015 47.6024" stroke="white" stroke-width="0.5" stroke-miterlimit="10"/>
<path d="M62.3459 42.1787L69.6015 49.2881" stroke="white" stroke-width="0.5" stroke-miterlimit="10"/>
<path d="M62.3459 43.8643L69.6015 50.9687" stroke="white" stroke-width="0.5" stroke-miterlimit="10"/>
<path d="M62.3459 45.5449L69.6015 52.6544" stroke="white" stroke-width="0.5" stroke-miterlimit="10"/>
<path d="M62.3459 47.2305L69.6015 54.3349" stroke="white" stroke-width="0.5" stroke-miterlimit="10"/>
<path d="M62.3459 48.9111L69.6015 56.0206" stroke="white" stroke-width="0.5" stroke-miterlimit="10"/>
<path d="M62.3459 50.5967L69.6015 57.7011" stroke="white" stroke-width="0.5" stroke-miterlimit="10"/>
<path d="M62.3459 52.2773L69.6015 59.3868" stroke="white" stroke-width="0.5" stroke-miterlimit="10"/>
<path d="M62.3459 53.9629L69.6015 61.0723" stroke="white" stroke-width="0.5" stroke-miterlimit="10"/>
<path d="M62.3459 55.6484L69.6015 62.7528" stroke="white" stroke-width="0.5" stroke-miterlimit="10"/>
<path d="M62.3459 57.3291L69.6015 64.4385" stroke="white" stroke-width="0.5" stroke-miterlimit="10"/>
<path d="M62.3459 59.0137L69.6015 66.1181" stroke="white" stroke-width="0.5" stroke-miterlimit="10"/>
<path d="M62.3459 60.6943L69.6015 67.8038" stroke="white" stroke-width="0.5" stroke-miterlimit="10"/>
<path d="M62.3459 62.3799L69.6015 69.4843" stroke="white" stroke-width="0.5" stroke-miterlimit="10"/>
<path d="M62.3459 64.0605L69.6015 71.17" stroke="white" stroke-width="0.5" stroke-miterlimit="10"/>
<path d="M62.3459 65.7461L69.6015 72.8505" stroke="white" stroke-width="0.5" stroke-miterlimit="10"/>
<path d="M62.3459 67.4268L69.6015 74.5362" stroke="white" stroke-width="0.5" stroke-miterlimit="10"/>
<path d="M62.3459 69.1123L69.6015 76.2217" stroke="white" stroke-width="0.5" stroke-miterlimit="10"/>
<path d="M62.3459 70.7979L69.6015 77.9023" stroke="white" stroke-width="0.5" stroke-miterlimit="10"/>
<path d="M62.3459 72.4785L69.6015 79.588" stroke="white" stroke-width="0.5" stroke-miterlimit="10"/>
<path d="M62.3459 74.1641L69.6015 81.2685" stroke="white" stroke-width="0.5" stroke-miterlimit="10"/>
<path d="M62.3459 75.8447L69.6015 82.9542" stroke="white" stroke-width="0.5" stroke-miterlimit="10"/>
<path d="M62.3459 77.5303L69.6015 84.6347" stroke="white" stroke-width="0.5" stroke-miterlimit="10"/>
<path d="M62.3459 79.21L69.6015 86.3194" stroke="white" stroke-width="0.5" stroke-miterlimit="10"/>
<path d="M62.3459 80.8955L69.6015 87.9999" stroke="white" stroke-width="0.5" stroke-miterlimit="10"/>
<path d="M62.3459 82.5811L69.6015 89.6855" stroke="white" stroke-width="0.5" stroke-miterlimit="10"/>
<path d="M62.3459 84.2617L69.6015 91.3712" stroke="white" stroke-width="0.5" stroke-miterlimit="10"/>
<path d="M62.3459 86.1641L69.6015 93.0521" stroke="white" stroke-width="0.5" stroke-miterlimit="10"/>
<path d="M62.3459 88.1162L69.6015 94.7376" stroke="white" stroke-width="0.5" stroke-miterlimit="10"/>
<path d="M62.3459 90.2646L69.6015 96.247" stroke="white" stroke-width="0.5" stroke-miterlimit="10"/>
<path d="M62.3459 92.3623L69.6015 97.6655" stroke="white" stroke-width="0.5" stroke-miterlimit="10"/>
<path d="M62.3459 94.3398L69.6015 98.8832" stroke="white" stroke-width="0.5" stroke-miterlimit="10"/>
<path d="M62.3459 98.0234L69.6015 101.349" stroke="white" stroke-width="0.5" stroke-miterlimit="10"/>
<path d="M62.3459 96.2168L69.6015 100.126" stroke="white" stroke-width="0.5" stroke-miterlimit="10"/>
<path d="M62.3459 99.6787L69.6015 102.446" stroke="white" stroke-width="0.5" stroke-miterlimit="10"/>
<path d="M62.3459 101.288L69.6015 103.492" stroke="white" stroke-width="0.5" stroke-miterlimit="10"/>
<path d="M62.3459 102.898L69.6015 104.468" stroke="white" stroke-width="0.5" stroke-miterlimit="10"/>
<path d="M62.3459 105.655L69.6015 106.641" stroke="white" stroke-width="0.5" stroke-miterlimit="10"/>
<path d="M62.3459 104.488L69.6015 105.565" stroke="white" stroke-width="0.5" stroke-miterlimit="10"/>
<path d="M62.3459 108.267L69.6015 108.765" stroke="white" stroke-width="0.5" stroke-miterlimit="10"/>
<path d="M62.3459 106.903L69.6015 107.688" stroke="white" stroke-width="0.5" stroke-miterlimit="10"/>
<path d="M62.3208 109.681L69.6015 109.887" stroke="white" stroke-width="0.5" stroke-miterlimit="10"/>
<path d="M33.8857 53.9619L41.1413 61.0714" stroke="white" stroke-width="0.5" stroke-miterlimit="10"/>
<path d="M33.8857 52.2061L41.1413 59.3105" stroke="white" stroke-width="0.5" stroke-miterlimit="10"/>
<path d="M33.8857 50.3994L41.1413 57.5088" stroke="white" stroke-width="0.5" stroke-miterlimit="10"/>
<path d="M33.8857 48.6436L41.1413 55.753" stroke="white" stroke-width="0.5" stroke-miterlimit="10"/>
<path d="M33.8857 46.8877L41.1413 53.9921" stroke="white" stroke-width="0.5" stroke-miterlimit="10"/>
<path d="M33.8857 55.6475L41.1413 62.7519" stroke="white" stroke-width="0.5" stroke-miterlimit="10"/>
<path d="M33.8857 57.3281L41.1413 64.4376" stroke="white" stroke-width="0.5" stroke-miterlimit="10"/>
<path d="M33.8857 59.0137L41.1413 66.1181" stroke="white" stroke-width="0.5" stroke-miterlimit="10"/>
<path d="M33.8857 60.6943L41.1413 67.8038" stroke="white" stroke-width="0.5" stroke-miterlimit="10"/>
<path d="M33.8857 62.3799L41.1413 69.4843" stroke="white" stroke-width="0.5" stroke-miterlimit="10"/>
<path d="M33.8857 64.0596L41.1413 71.169" stroke="white" stroke-width="0.5" stroke-miterlimit="10"/>
<path d="M33.8857 65.7451L41.1413 72.8495" stroke="white" stroke-width="0.5" stroke-miterlimit="10"/>
<path d="M33.8857 67.4258L41.1413 74.5352" stroke="white" stroke-width="0.5" stroke-miterlimit="10"/>
<path d="M33.8857 69.1113L41.1413 76.2208" stroke="white" stroke-width="0.5" stroke-miterlimit="10"/>
<path d="M33.8857 70.7969L41.1413 77.9013" stroke="white" stroke-width="0.5" stroke-miterlimit="10"/>
<path d="M33.8857 72.4775L41.1413 79.587" stroke="white" stroke-width="0.5" stroke-miterlimit="10"/>
<path d="M33.8857 74.1631L41.1413 81.2675" stroke="white" stroke-width="0.5" stroke-miterlimit="10"/>
<path d="M33.8857 75.8438L41.1413 82.9532" stroke="white" stroke-width="0.5" stroke-miterlimit="10"/>
<path d="M33.8857 77.5293L41.1413 84.6337" stroke="white" stroke-width="0.5" stroke-miterlimit="10"/>
<path d="M33.8857 79.21L41.1413 86.3194" stroke="white" stroke-width="0.5" stroke-miterlimit="10"/>
<path d="M33.8857 80.8955L41.1413 87.9999" stroke="white" stroke-width="0.5" stroke-miterlimit="10"/>
<path d="M33.8857 82.5811L41.1413 89.6855" stroke="white" stroke-width="0.5" stroke-miterlimit="10"/>
<path d="M33.8857 84.2617L41.1413 91.3712" stroke="white" stroke-width="0.5" stroke-miterlimit="10"/>
<path d="M33.8857 86.1631L41.1413 93.0511" stroke="white" stroke-width="0.5" stroke-miterlimit="10"/>
<path d="M33.8857 88.1152L41.1413 94.7366" stroke="white" stroke-width="0.5" stroke-miterlimit="10"/>
<path d="M33.8857 90.2637L41.1413 96.2461" stroke="white" stroke-width="0.5" stroke-miterlimit="10"/>
<path d="M33.8857 92.3623L41.1413 97.6655" stroke="white" stroke-width="0.5" stroke-miterlimit="10"/>
<path d="M33.8857 94.3389L41.1413 98.8823" stroke="white" stroke-width="0.5" stroke-miterlimit="10"/>
<path d="M33.8857 98.0225L41.1413 101.348" stroke="white" stroke-width="0.5" stroke-miterlimit="10"/>
<path d="M33.8857 96.2158L41.1413 100.125" stroke="white" stroke-width="0.5" stroke-miterlimit="10"/>
<path d="M33.8857 99.6777L41.1413 102.445" stroke="white" stroke-width="0.5" stroke-miterlimit="10"/>
<path d="M33.8857 101.288L41.1413 103.492" stroke="white" stroke-width="0.5" stroke-miterlimit="10"/>
<path d="M33.8857 102.897L41.1413 104.467" stroke="white" stroke-width="0.5" stroke-miterlimit="10"/>
<path d="M33.8857 105.655L41.1413 106.641" stroke="white" stroke-width="0.5" stroke-miterlimit="10"/>
<path d="M33.8857 104.487L41.1413 105.564" stroke="white" stroke-width="0.5" stroke-miterlimit="10"/>
<path d="M33.8857 108.267L41.1413 108.765" stroke="white" stroke-width="0.5" stroke-miterlimit="10"/>
<path d="M33.8857 106.902L41.1413 107.687" stroke="white" stroke-width="0.5" stroke-miterlimit="10"/>
<path d="M33.8606 109.68L41.1413 109.886" stroke="white" stroke-width="0.5" stroke-miterlimit="10"/>
</g>
<defs>
<clipPath id="clip0_65_3111">
<rect width="83" height="112" fill="white" transform="translate(0.5)"/>
</clipPath>
</defs>
</svg>
