<?xml version="1.0" encoding="UTF-8"?>
<svg id="Layer_2" data-name="Layer 2" xmlns="http://www.w3.org/2000/svg" xmlns:xlink="http://www.w3.org/1999/xlink" viewBox="0 0 1769.19 785.46">
  <defs>
    <style>
      .cls-1 {
        fill: url(#linear-gradient);
      }

      .cls-1, .cls-2, .cls-3, .cls-4, .cls-5, .cls-6, .cls-7 {
        stroke-width: 0px;
      }

      .cls-2 {
        fill: #000;
      }

      .cls-3 {
        fill: #47515d;
      }

      .cls-4 {
        fill: url(#linear-gradient-2);
      }

      .cls-5 {
        fill: #f1f1f1;
      }

      .cls-8 {
        fill: #fff;
        stroke: #fff;
        stroke-miterlimit: 10;
        stroke-width: 2.18px;
      }

      .cls-6 {
        fill: #1b1b1b;
      }

      .cls-7 {
        fill: #b5854b;
      }
    </style>
    <linearGradient id="linear-gradient" x1="1734.62" y1="345.5" x2="1712.49" y2="345.5" gradientTransform="translate(1.06 .14) rotate(.01)" gradientUnits="userSpaceOnUse">
      <stop offset="0" stop-color="#1b1b1b"/>
      <stop offset="1" stop-color="#000"/>
    </linearGradient>
    <linearGradient id="linear-gradient-2" x1="4144.9" y1="345.5" x2="4122.4" y2="345.5" gradientTransform="translate(5883.69 1.2) rotate(-179.99) scale(1 -1)" xlink:href="#linear-gradient"/>
  </defs>
  <g id="Layer_1-2" data-name="Layer 1">
    <g>
      <g>
        <path class="cls-6" d="M839.61,464.33l-15.77-36.33-108.67-.02-16.13,36.33h-46.23s119.07-240.68,119.07-240.68l116.3,240.71h-48.58ZM727.16,397.14h83.38s-41.13-99.36-41.13-99.36l-42.26,99.36Z"/>
        <path class="cls-6" d="M1151.67,522.64c-20.23-.32-48.3-4.54-83.87-15.51h-.04c-5.78-1.75-9.25-2.78-11.6-3.47l-2.09-.63c-19.56-6.61-37.78-8.61-60.83-8.93.64-5.85,6.66-41.57,6.66-41.57,0,0-44.76-9.79-63.54-46.43-7.71-15.04-13.68-31.16-15.55-49.11-1.45-13.86-.73-27.7,2.13-41.11,2.85-13.38,7.83-26.01,14.81-37.53v-.02c4.94-8.22,10.67-15.73,17.04-22.34,6.36-6.6,13.55-12.48,21.36-17.49,7.81-5.01,16.11-9.06,24.69-12.05,8.59-2.99,17.7-5.01,27.08-5.99h.02c13.37-1.4,26.63-.61,39.41,2.36,12.77,2.96,25.05,8.12,36.49,15.31,8.12,5.1,15.53,11.04,22.04,17.66,6.51,6.62,12.3,14.11,17.21,22.26,4.92,8.17,8.94,16.97,11.94,26.16,3.01,9.23,5.08,19.11,6.15,29.39,1.69,16.18.17,32.33-4.52,47.98-4.69,15.64-12.21,29.73-22.37,41.89l-.06.07c-9.05,11.16-14.99,17.07-31.04,25.02-13.95,6.91-20.25,9.9-38.85,11.55-17.48,1.55-35.24-1.19-35.24-1.19l-.67,14.56,5.54.62c7.67.87,30.71,5.52,57.94,11.65,24.39,5.48,49.59,7.68,67.66,7.64l-7.91,29.25ZM1032.48,264.07c-20.16,2.11-36.49,11.92-48.53,29.14-11.86,16.96-16.65,37.27-14.23,60.36,2.39,22.87,11.27,41.64,26.38,55.78,15.35,14.36,33.36,20.58,53.53,18.47,20.28-2.12,36.64-11.9,48.64-29.07,11.81-16.9,16.58-37.12,14.18-60.11-2.41-23.09-11.27-41.97-26.32-56.11-15.3-14.38-33.34-20.59-53.62-18.47h-.01Z"/>
        <path class="cls-6" d="M1380.29,464.42l-15.77-36.33-108.67-.02-16.13,36.33h-46.23s119.07-240.68,119.07-240.68l116.3,240.71h-48.58ZM1267.84,397.23h83.38s-41.13-99.36-41.13-99.36l-42.26,99.36Z"/>
        <path class="cls-6" d="M1609.35,464.47l-66.4-97.62h-17.58s-.02,97.6-.02,97.6h-45.75s.04-236.91.04-236.91h58.09c19.9.01,35.45,1.32,46.22,3.89,10.44,2.5,19.8,6.7,27.82,12.51l.02.02c8.44,6.06,15.07,13.64,19.7,22.54,4.62,8.88,6.96,18.38,6.96,28.23,0,7.24-.93,14.1-2.76,20.4-1.81,6.24-4.56,12.11-8.18,17.46-3.63,5.37-8.13,10.22-13.37,14.43-5.31,4.26-11.55,7.99-18.55,11.08l-6.72,2.97,73.48,103.4h-52.99ZM1525.37,341.97h18.52c16.23,0,28.98-3.48,37.89-10.35,9.39-7.24,14.16-17.64,14.16-30.89,0-13.94-4.72-24.31-14.03-30.81-8.77-6.11-22.1-9.08-40.76-9.08h-15.76s-.01,81.14-.01,81.14Z"/>
        <g>
          <polygon class="cls-2" points="1713.47 459.12 1713.51 231.71 1737.21 227.68 1760.89 231.72 1760.85 459.13 1737.16 464.34 1713.47 459.12"/>
          <polygon class="cls-1" points="1713.47 459.12 1713.51 231.71 1735.59 227.91 1735.59 464.01 1713.47 459.12"/>
          <polygon class="cls-4" points="1738.74 227.91 1761.24 231.89 1761.19 459.3 1738.74 464.01 1738.74 227.91"/>
        </g>
      </g>
      <g>
        <path class="cls-2" d="M757.26,610.74h-50.56s0-20.88,0-20.88c0-11.75,4.41-21.77,13.22-30.07,8.43-7.79,19.09-11.87,31.98-12.25v13.6c-6.26.25-11.56,1.53-15.9,3.83-4.85,2.68-8.68,6.22-11.49,10.63s-4.21,9.16-4.22,14.27v7.28s50.75,0,50.75,0v74.12s-49.23,0-49.23,0c-10.09-.13-19.66-1.79-28.73-4.98-9.45-2.94-17.81-7.28-25.09-13.03-7.4-5.87-13.21-12.64-17.42-20.3-4.34-8.04-6.51-16.54-6.51-25.47v-34.28s13.6,0,13.6,0v34.28c0,13.53,6.25,25.15,18.76,34.86,12.89,10.09,28.41,15.13,46.54,15.14h34.28s0-46.72,0-46.72Z"/>
        <rect class="cls-7" x="709.56" y="686.57" width="15.13" height="17.43"/>
        <rect class="cls-7" x="742.12" y="686.58" width="15.13" height="17.43"/>
        <path class="cls-2" d="M797.85,699.42c7.02-.89,12.7-3.06,17.05-6.51,5.11-4.21,7.66-9.19,7.66-14.94l.02-122.19h13.6s-.02,122.19-.02,122.19c0,9.96-4.09,18.38-12.26,25.28-6.9,5.62-15.58,8.87-26.05,9.76v-13.6Z"/>
        <polygon class="cls-2" points="1464.1 657.6 1464.1 671.39 862.96 671.28 862.99 513.66 876.59 513.66 876.56 657.49 1464.1 657.6"/>
        <path class="cls-2" d="M1489.96,671.39h-35.43s0-13.8,0-13.8h35.43s0,13.8,0,13.8Z"/>
        <path class="cls-2" d="M1592.61,657.62l.02-101.69h-27.96c-15.84-.01-29.37,5.64-40.61,16.93-11.23,11.3-16.85,24.86-16.86,40.7,0,15.96,5.61,29.55,16.85,40.79,2.55,2.56,3.57,3.64,3.06,3.26h-44.81s0,13.78,0,13.78l136.93.02v-13.79h-26.62ZM1578.82,657.62h-20.11c-9.57-1.16-17.94-5.31-25.08-12.46-8.56-8.56-12.83-18.96-12.83-31.22s4.28-22.5,12.84-31.12c8.55-8.61,18.89-12.92,31.02-12.92h14.18l-.02,87.72Z"/>
        <rect class="cls-7" x="1537.1" y="523.93" width="15.13" height="17.62"/>
        <rect class="cls-7" x="1569.65" y="523.94" width="15.13" height="17.62"/>
        <path class="cls-2" d="M1647,671.41h-35.43s0-13.8,0-13.8h35.43s0,13.8,0,13.8Z"/>
        <path class="cls-2" d="M1754.46,582.38c-8.68-8.56-19.02-12.83-31.02-12.84-12.13,0-22.5,4.34-31.12,13.02-8.62,8.68-12.93,19.02-12.93,31.02,0,12.13,4.34,22.54,13.02,31.22,7.66,7.79,16.79,12.07,27.38,12.84h49.41s0,13.8,0,13.8l-129.85-.02v-13.79s46.54,0,46.54,0c.51.38-.51-.7-3.06-3.26-11.36-11.24-17.04-24.84-17.04-40.8,0-15.83,5.65-29.39,16.95-40.69,11.3-11.3,24.87-16.95,40.7-16.94,14.3,0,27,4.86,38.11,14.56l-1.92,17.24c-2.68-2.68-4.4-4.47-5.17-5.36Z"/>
      </g>
      <g>
        <g>
          <polygon class="cls-5" points="0 785.46 0 292.57 586.93 0 586.93 785.46 0 785.46"/>
          <polygon class="cls-3" points="547.23 64.15 547.23 745.76 501.86 745.76 501.86 145.04 85.07 353.78 85.07 745.76 39.7 745.76 39.7 317.13 547.23 64.15"/>
        </g>
        <path class="cls-7" d="M410.58,231.34l-116.73,55.46v85.19l-56.59-57.18-118.55,60.03v372.61h349.48v-459.52l-57.61-56.6ZM220.05,730.6h-84.23v-346.6l84.23-40.42v387.01ZM393.32,730.6h-84.23v-431.22l84.23-38.21v469.42Z"/>
        <g>
          <line class="cls-8" x1="417.8" y1="262.44" x2="462.16" y2="305.81"/>
          <line class="cls-8" x1="417.8" y1="271.38" x2="462.16" y2="314.74"/>
          <line class="cls-8" x1="417.8" y1="280.31" x2="462.16" y2="323.68"/>
          <line class="cls-8" x1="417.8" y1="290.58" x2="462.16" y2="333.95"/>
          <line class="cls-8" x1="417.8" y1="300.85" x2="462.16" y2="344.22"/>
          <line class="cls-8" x1="417.8" y1="311.12" x2="462.16" y2="354.49"/>
          <line class="cls-8" x1="417.8" y1="321.4" x2="462.16" y2="364.77"/>
          <line class="cls-8" x1="417.8" y1="331.67" x2="462.16" y2="375.04"/>
          <line class="cls-8" x1="417.8" y1="341.94" x2="462.16" y2="385.31"/>
          <line class="cls-8" x1="417.8" y1="352.21" x2="462.16" y2="395.58"/>
          <line class="cls-8" x1="417.8" y1="362.49" x2="462.16" y2="405.85"/>
          <line class="cls-8" x1="417.8" y1="372.76" x2="462.16" y2="416.13"/>
          <line class="cls-8" x1="417.8" y1="383.03" x2="462.16" y2="426.4"/>
          <line class="cls-8" x1="417.8" y1="393.3" x2="462.16" y2="436.67"/>
          <line class="cls-8" x1="417.8" y1="403.57" x2="462.16" y2="446.94"/>
          <line class="cls-8" x1="417.8" y1="413.85" x2="462.16" y2="457.21"/>
          <line class="cls-8" x1="417.8" y1="424.12" x2="462.16" y2="467.49"/>
          <line class="cls-8" x1="417.8" y1="434.39" x2="462.16" y2="477.76"/>
          <line class="cls-8" x1="417.8" y1="444.66" x2="462.16" y2="488.03"/>
          <line class="cls-8" x1="417.8" y1="454.93" x2="462.16" y2="498.3"/>
          <line class="cls-8" x1="417.8" y1="465.21" x2="462.16" y2="508.58"/>
          <line class="cls-8" x1="417.8" y1="475.48" x2="462.16" y2="518.85"/>
          <line class="cls-8" x1="417.8" y1="485.75" x2="462.16" y2="529.12"/>
          <line class="cls-8" x1="417.8" y1="496.02" x2="462.16" y2="539.39"/>
          <line class="cls-8" x1="417.8" y1="506.29" x2="462.16" y2="549.66"/>
          <line class="cls-8" x1="417.8" y1="516.57" x2="462.16" y2="559.94"/>
          <line class="cls-8" x1="417.8" y1="526.84" x2="462.16" y2="570.21"/>
          <line class="cls-8" x1="417.8" y1="537.11" x2="462.16" y2="580.48"/>
          <line class="cls-8" x1="417.8" y1="547.38" x2="462.16" y2="590.75"/>
          <line class="cls-8" x1="417.8" y1="557.66" x2="462.16" y2="601.02"/>
          <line class="cls-8" x1="417.8" y1="567.93" x2="462.16" y2="611.3"/>
          <line class="cls-8" x1="417.8" y1="578.2" x2="462.16" y2="621.57"/>
          <line class="cls-8" x1="417.8" y1="589.81" x2="462.16" y2="631.84"/>
          <line class="cls-8" x1="417.8" y1="601.72" x2="462.16" y2="642.11"/>
          <line class="cls-8" x1="417.8" y1="614.82" x2="462.16" y2="651.34"/>
          <line class="cls-8" x1="417.8" y1="627.63" x2="462.16" y2="659.98"/>
          <line class="cls-8" x1="417.8" y1="639.68" x2="462.16" y2="667.42"/>
          <line class="cls-8" x1="417.8" y1="662.16" x2="462.16" y2="682.46"/>
          <line class="cls-8" x1="417.8" y1="651.15" x2="462.16" y2="675.01"/>
          <line class="cls-8" x1="417.8" y1="672.29" x2="462.16" y2="689.16"/>
          <line class="cls-8" x1="417.8" y1="682.11" x2="462.16" y2="695.56"/>
          <line class="cls-8" x1="417.8" y1="691.94" x2="462.16" y2="701.51"/>
          <line class="cls-8" x1="417.8" y1="708.76" x2="462.16" y2="714.76"/>
          <line class="cls-8" x1="417.8" y1="701.61" x2="462.16" y2="708.21"/>
          <line class="cls-8" x1="417.8" y1="724.69" x2="462.16" y2="727.71"/>
          <line class="cls-8" x1="417.8" y1="716.35" x2="462.16" y2="721.16"/>
          <line class="cls-8" x1="417.65" y1="733.32" x2="462.16" y2="734.56"/>
        </g>
        <g>
          <line class="cls-8" x1="243.77" y1="393.3" x2="288.13" y2="436.67"/>
          <line class="cls-8" x1="243.77" y1="382.58" x2="288.13" y2="425.95"/>
          <line class="cls-8" x1="243.77" y1="371.57" x2="288.13" y2="414.93"/>
          <line class="cls-8" x1="243.77" y1="360.85" x2="288.13" y2="404.22"/>
          <line class="cls-8" x1="243.77" y1="350.13" x2="288.13" y2="393.5"/>
          <line class="cls-8" x1="243.77" y1="403.57" x2="288.13" y2="446.94"/>
          <line class="cls-8" x1="243.77" y1="413.85" x2="288.13" y2="457.21"/>
          <line class="cls-8" x1="243.77" y1="424.12" x2="288.13" y2="467.49"/>
          <line class="cls-8" x1="243.77" y1="434.39" x2="288.13" y2="477.76"/>
          <line class="cls-8" x1="243.77" y1="444.66" x2="288.13" y2="488.03"/>
          <line class="cls-8" x1="243.77" y1="454.93" x2="288.13" y2="498.3"/>
          <line class="cls-8" x1="243.77" y1="465.21" x2="288.13" y2="508.58"/>
          <line class="cls-8" x1="243.77" y1="475.48" x2="288.13" y2="518.85"/>
          <line class="cls-8" x1="243.77" y1="485.75" x2="288.13" y2="529.12"/>
          <line class="cls-8" x1="243.77" y1="496.02" x2="288.13" y2="539.39"/>
          <line class="cls-8" x1="243.77" y1="506.29" x2="288.13" y2="549.66"/>
          <line class="cls-8" x1="243.77" y1="516.57" x2="288.13" y2="559.94"/>
          <line class="cls-8" x1="243.77" y1="526.84" x2="288.13" y2="570.21"/>
          <line class="cls-8" x1="243.77" y1="537.11" x2="288.13" y2="580.48"/>
          <line class="cls-8" x1="243.77" y1="547.38" x2="288.13" y2="590.75"/>
          <line class="cls-8" x1="243.77" y1="557.66" x2="288.13" y2="601.02"/>
          <line class="cls-8" x1="243.77" y1="567.93" x2="288.13" y2="611.3"/>
          <line class="cls-8" x1="243.77" y1="578.2" x2="288.13" y2="621.57"/>
          <line class="cls-8" x1="243.77" y1="589.81" x2="288.13" y2="631.84"/>
          <line class="cls-8" x1="243.77" y1="601.72" x2="288.13" y2="642.11"/>
          <line class="cls-8" x1="243.77" y1="614.82" x2="288.13" y2="651.34"/>
          <line class="cls-8" x1="243.77" y1="627.63" x2="288.13" y2="659.98"/>
          <line class="cls-8" x1="243.77" y1="639.68" x2="288.13" y2="667.42"/>
          <line class="cls-8" x1="243.77" y1="662.16" x2="288.13" y2="682.46"/>
          <line class="cls-8" x1="243.77" y1="651.15" x2="288.13" y2="675.01"/>
          <line class="cls-8" x1="243.77" y1="672.29" x2="288.13" y2="689.16"/>
          <line class="cls-8" x1="243.77" y1="682.11" x2="288.13" y2="695.56"/>
          <line class="cls-8" x1="243.77" y1="691.94" x2="288.13" y2="701.51"/>
          <line class="cls-8" x1="243.77" y1="708.76" x2="288.13" y2="714.76"/>
          <line class="cls-8" x1="243.77" y1="701.61" x2="288.13" y2="708.21"/>
          <line class="cls-8" x1="243.77" y1="724.69" x2="288.13" y2="727.71"/>
          <line class="cls-8" x1="243.77" y1="716.35" x2="288.13" y2="721.16"/>
          <line class="cls-8" x1="243.62" y1="733.32" x2="288.13" y2="734.56"/>
        </g>
      </g>
    </g>
  </g>
</svg>